<svg width="46" height="52" viewBox="0 0 46 52" fill="none" xmlns="http://www.w3.org/2000/svg">
<path d="M14.25 26L22.5688 34.3187C22.7919 34.5418 23.1633 34.5051 23.3384 34.2425L34.6667 17.25M23.394 2.83549L42.725 11.1202C43.1346 11.2958 43.3786 11.7212 43.3234 12.1634L40.7937 32.4006C40.605 33.9102 39.8499 35.2918 38.6811 36.2657L23.6402 48.7999C23.2694 49.1089 22.7307 49.1089 22.3598 48.7998L7.31892 36.2657C6.15018 35.2918 5.39506 33.9102 5.20636 32.4006L2.67671 12.1634C2.62143 11.7212 2.86545 11.2958 3.27507 11.1202L22.6061 2.83549C22.8577 2.72769 23.1424 2.72769 23.394 2.83549Z" stroke="#33363F" stroke-width="5" stroke-linecap="round"/>
</svg>
