<svg width="70" height="70" viewBox="0 0 70 70" fill="none" xmlns="http://www.w3.org/2000/svg">
<path d="M23.3333 35L23.3333 23.3333C23.3332 16.89 28.5566 11.6667 34.9999 11.6667V11.6667C41.4432 11.6667 46.6666 16.89 46.6666 23.3333L46.6666 35" stroke="#33363F" stroke-width="5" stroke-linecap="round"/>
<path d="M11.361 29.9178C11.5061 28.1769 11.5786 27.3065 12.1527 26.7782C12.7268 26.25 13.6003 26.25 15.3472 26.25H54.6528C56.3997 26.25 57.2732 26.25 57.8473 26.7782C58.4214 27.3065 58.4939 28.1769 58.639 29.9178L61.0695 59.0839C61.154 60.0975 61.1962 60.6042 60.8991 60.9271C60.602 61.25 60.0935 61.25 59.0764 61.25H10.9236C9.90655 61.25 9.39802 61.25 9.10092 60.9271C8.80382 60.6042 8.84605 60.0975 8.93051 59.0839L11.361 29.9178Z" stroke="#33363F" stroke-width="5"/>
</svg>
